<svg xmlns="http://www.w3.org/2000/svg" viewBox="100 93 598 598"><path fill="#C9A96E" fill-rule="evenodd" d="M328.0 666.9C323.9 666.5 311.8 665.4 301.1 664.6C290.5 663.8 280.4 662.6 278.7 662.0C277.0 661.5 271.8 660.7 267.1 660.4C262.4 660.0 257.2 659.2 255.7 658.4C254.1 657.7 249.4 656.8 245.2 656.4C240.9 656.0 235.6 654.9 233.3 653.9C231.0 652.8 228.0 652.0 226.7 652.0C225.4 652.0 223.5 651.3 222.4 650.5C221.4 649.7 219.7 649.0 218.8 649.0C214.4 648.9 199.8 639.8 194.0 633.4C190.1 629.1 179.6 621.6 175.9 620.5C174.6 620.1 172.4 618.9 171.1 617.9C169.8 616.8 168.2 616.0 167.5 616.0C166.0 616.0 161.0 608.7 161.0 606.5C161.0 603.9 165.8 597.2 168.2 596.4C169.5 596.1 171.6 595.0 173.0 594.0C174.4 593.1 177.5 592.0 179.9 591.6C182.3 591.2 185.4 590.3 186.9 589.6C188.3 588.9 193.7 587.9 198.8 587.5C207.5 586.9 208.2 587.0 207.8 588.6C207.6 590.1 205.8 590.6 198.5 591.5C193.5 592.2 188.5 593.2 187.3 593.8C186.1 594.5 184.2 595.0 183.2 595.0C180.6 595.0 170.1 600.5 167.7 603.1C166.4 604.4 166.0 605.9 166.4 607.5C167.0 609.9 175.2 616.0 178.0 616.0C178.9 616.0 180.0 616.4 180.6 617.0C181.1 617.5 184.2 618.8 187.5 619.8C192.2 621.2 193.6 622.0 193.8 623.8C194.2 626.6 195.6 626.6 196.3 623.9C196.7 622.3 197.3 621.9 198.7 622.5C199.7 622.9 203.9 623.8 208.0 624.5C212.1 625.2 216.2 626.0 217.0 626.4C219.1 627.2 239.0 629.8 253.0 631.1C259.3 631.6 269.2 632.7 275.0 633.5C285.2 635.0 296.2 635.6 354.2 638.1C398.2 640.0 477.8 638.0 516.5 634.0C527.0 632.9 540.2 631.6 546.0 631.0C560.6 629.6 572.6 628.1 578.5 627.0C581.2 626.4 587.8 625.3 593.0 624.4C602.3 622.8 617.5 618.6 619.5 617.0C620.0 616.6 622.1 615.7 624.1 615.1C628.5 613.7 634.3 607.9 633.8 605.4C632.9 600.6 616.4 593.4 602.3 591.6C594.2 590.6 592.5 590.1 592.2 588.6C591.9 587.0 592.3 586.8 596.2 587.4C598.5 587.7 602.9 588.0 605.8 588.0C608.7 587.9 612.4 588.6 614.1 589.4C615.8 590.3 618.8 591.2 620.9 591.6C622.9 592.0 625.6 593.1 626.9 594.1C628.2 595.2 630.1 596.0 631.1 596.0C633.2 596.0 639.0 603.4 639.0 605.9C639.0 608.7 634.5 615.5 632.5 615.8C631.4 616.0 629.6 617.0 628.5 618.0C627.4 619.0 625.4 620.1 624.1 620.5C620.6 621.6 610.5 628.7 604.5 634.5C596.5 642.1 585.2 648.9 580.5 649.0C579.4 649.0 577.6 649.7 576.6 650.5C575.5 651.3 573.6 652.0 572.4 652.0C571.2 652.0 568.3 652.9 565.9 654.0C563.5 655.1 559.6 656.0 557.3 656.0C555.1 656.0 550.3 656.9 546.8 658.0C543.4 659.1 538.4 660.0 535.8 660.0C533.3 660.0 526.7 660.9 521.3 661.9C515.9 663.0 504.8 664.1 496.5 664.5C487.9 664.9 480.9 665.7 480.1 666.4C478.4 667.7 340.1 668.2 328.0 666.9ZM474.5 662.1C478.9 661.5 490.3 660.6 499.7 660.0C509.2 659.4 518.2 658.5 519.7 657.9C521.3 657.3 527.1 656.5 532.8 656.0C538.4 655.6 543.6 654.8 544.3 654.3C544.9 653.7 549.2 652.8 553.8 652.1C558.3 651.4 563.9 650.2 566.2 649.4C568.4 648.6 571.4 648.0 572.9 648.0C574.3 648.0 576.9 647.1 578.5 646.0C580.1 644.9 582.2 644.0 583.0 644.0C583.8 644.0 587.0 642.2 590.0 640.0C593.0 637.8 597.2 635.0 599.2 633.8C601.8 632.2 603.0 630.8 603.0 629.2C603.0 626.5 601.9 626.5 592.5 628.6C588.6 629.5 583.9 630.4 582.0 630.6C580.1 630.9 571.1 632.2 562.0 633.5C497.7 642.9 362.4 645.6 286.0 639.0C253.2 636.1 241.9 634.9 236.9 633.5C233.9 632.7 228.0 631.9 223.9 631.8C219.2 631.7 215.6 631.1 214.0 630.1C212.6 629.3 210.2 628.5 208.5 628.3C206.8 628.2 203.4 627.8 200.8 627.4C196.3 626.8 196.0 626.9 196.0 628.9C196.0 630.1 196.8 631.4 197.8 631.7C198.7 632.1 201.3 633.8 203.5 635.5C210.5 641.0 215.6 644.0 217.6 644.0C218.7 644.0 220.5 644.6 221.6 645.4C222.7 646.2 225.4 647.2 227.6 647.5C229.7 647.9 232.3 648.7 233.3 649.2C234.2 649.7 239.6 651.0 245.3 652.1C250.9 653.2 257.3 654.5 259.5 655.0C261.7 655.5 265.8 655.9 268.6 656.0C271.4 656.0 275.9 656.7 278.6 657.5C281.3 658.3 291.1 659.4 300.5 660.0C309.9 660.6 323.6 661.7 331.0 662.5C347.8 664.2 461.7 663.9 474.5 662.1ZM344.0 621.5C335.5 620.8 322.0 620.1 314.0 620.1C306.0 620.0 297.5 619.5 295.0 618.9C292.5 618.4 283.1 617.3 274.1 616.5C263.5 615.5 257.0 614.4 255.6 613.5C254.5 612.6 251.3 612.0 248.5 612.0C245.7 612.0 240.9 611.1 237.7 610.0C234.6 608.9 231.2 608.0 230.2 608.0C229.1 608.0 227.1 607.1 225.7 606.0C222.4 603.4 222.6 603.4 217.1 608.0C211.5 612.7 210.9 612.8 206.4 609.4C201.6 605.7 201.5 600.2 206.3 596.6C210.1 593.7 212.8 593.3 213.6 595.4C213.9 596.2 215.6 597.2 217.3 597.6C219.1 597.9 222.9 599.6 225.9 601.1C228.9 602.7 232.2 604.0 233.4 604.0C234.6 604.0 236.8 604.8 238.5 605.7C240.2 606.6 244.7 607.7 248.5 608.1C252.3 608.5 258.4 609.5 262.0 610.4C265.6 611.2 271.0 611.9 274.0 612.0C277.0 612.0 283.1 612.7 287.5 613.5C292.0 614.4 306.1 615.5 320.0 616.0C333.5 616.5 351.0 617.4 359.0 618.0C377.7 619.3 421.4 619.3 440.0 618.0C448.0 617.4 465.3 616.5 478.5 616.0C492.6 615.4 505.2 614.4 509.0 613.6C512.6 612.7 518.5 612.1 522.2 612.0C525.8 612.0 533.4 611.1 539.0 610.0C544.6 608.9 550.6 608.0 552.3 608.0C554.1 608.0 556.8 607.3 558.5 606.4C560.1 605.6 563.6 604.4 566.3 603.9C570.7 602.9 580.4 598.4 586.4 594.5C588.9 592.8 589.1 592.9 593.0 596.0C598.5 600.4 598.7 605.5 593.6 609.4C589.1 612.8 588.6 612.7 583.0 608.0C578.0 603.8 575.6 603.1 574.3 605.3C573.9 606.0 570.9 607.2 567.7 607.9C564.5 608.6 560.7 609.8 559.2 610.6C557.7 611.4 554.7 612.0 552.5 612.0C550.3 612.1 546.7 612.7 544.5 613.5C542.3 614.4 534.6 615.5 527.5 616.1C520.4 616.7 512.7 617.6 510.5 618.1C508.3 618.6 495.9 619.5 483.0 620.0C470.1 620.5 454.3 621.4 448.0 622.0C432.2 623.3 363.0 623.0 344.0 621.5ZM590.9 606.6C591.6 605.8 592.0 603.9 591.8 602.3C591.5 599.9 591.0 599.5 588.5 599.5C586.0 599.5 585.4 599.9 585.2 602.1C584.9 604.6 587.1 608.0 588.9 608.0C589.4 608.0 590.3 607.4 590.9 606.6ZM214.0 605.1C216.5 600.3 214.2 596.7 210.1 599.0C208.6 599.8 208.0 601.1 208.0 603.5C208.0 606.6 208.3 607.0 210.5 607.0C211.9 607.0 213.4 606.2 214.0 605.1ZM212.3 588.6L209.1 586.3L212.2 583.4C215.1 580.6 215.2 580.3 214.6 574.1C213.7 566.0 215.5 549.2 218.0 541.5C219.1 538.2 220.0 534.6 220.0 533.5C220.0 531.8 221.1 528.6 225.1 518.5C226.2 515.5 232.9 501.8 234.3 499.5C234.9 498.4 237.4 494.5 239.7 490.9C242.1 487.3 244.0 483.9 244.0 483.3C244.0 482.7 245.2 481.1 246.8 479.8C248.3 478.6 250.3 476.1 251.4 474.5C253.4 471.2 278.0 447.0 279.3 447.0C279.7 447.0 282.3 445.2 285.1 443.0C287.9 440.8 290.8 439.0 291.6 439.0C292.4 439.0 293.0 438.6 293.0 438.1C293.0 437.5 295.8 435.7 299.2 434.0C302.7 432.2 306.2 430.2 307.1 429.4C307.9 428.6 309.1 428.0 309.6 428.0C310.1 428.0 312.1 427.2 314.0 426.1C315.9 425.1 321.1 423.1 325.5 421.6C329.9 420.1 334.7 418.3 336.2 417.5C337.6 416.7 339.9 416.0 341.2 416.0C342.6 416.0 346.0 415.3 348.9 414.4C351.8 413.6 357.2 412.4 360.9 412.0C370.3 410.7 385.2 408.2 386.7 407.6C390.6 406.1 385.6 398.0 379.9 396.6C378.2 396.3 376.8 394.9 376.0 393.0C375.3 391.4 374.2 389.5 373.4 388.9C371.2 387.1 371.8 381.6 374.6 377.2C377.2 373.3 381.9 371.1 387.7 371.0C388.7 371.0 391.1 369.6 393.0 368.0C396.5 365.1 396.5 365.1 394.0 364.2C392.6 363.7 389.1 363.5 386.2 363.8C376.0 364.7 368.0 359.2 368.0 351.3C368.1 346.1 375.2 338.3 385.1 332.4C386.2 331.8 387.8 330.7 388.7 329.9C389.7 329.1 392.2 327.6 394.2 326.6C398.2 324.6 408.0 315.3 408.0 313.5C408.0 312.9 407.3 311.4 406.4 310.2C403.3 305.8 407.3 303.6 410.8 307.8C413.4 311.1 412.2 315.3 406.9 321.8C404.1 325.2 401.2 328.0 400.5 328.0C399.9 328.0 398.5 328.9 397.5 330.0C396.5 331.1 395.2 332.0 394.7 332.0C390.8 332.0 372.0 348.2 372.0 351.5C372.0 352.5 373.5 354.8 375.4 356.6C378.6 359.7 379.3 360.0 388.2 360.6C393.3 361.0 398.6 361.8 400.0 362.5C401.4 363.2 404.6 364.0 407.3 364.3C417.6 365.7 428.0 375.8 428.0 384.5C428.0 388.5 423.6 395.6 420.5 396.6C416.5 397.9 412.0 402.2 412.0 404.6C412.0 407.5 413.2 408.2 418.5 408.4C420.8 408.4 423.4 409.1 424.2 409.8C425.1 410.5 427.1 411.0 428.6 411.0C433.7 411.0 446.3 412.8 452.0 414.4C455.0 415.3 458.1 416.0 458.9 416.0C459.8 416.0 462.7 416.9 465.5 417.9C481.3 424.0 491.7 428.3 493.0 429.5C493.8 430.2 497.0 432.1 500.1 433.7C507.0 437.4 516.4 443.6 518.0 445.5C518.7 446.3 519.8 447.0 520.5 447.0C521.1 447.0 525.9 451.1 531.1 456.1C536.3 461.1 541.4 466.0 542.5 466.9C545.3 469.2 556.0 482.5 556.0 483.7C556.0 484.3 556.6 485.3 557.4 485.9C560.7 488.6 576.0 518.6 576.0 522.4C576.0 523.0 576.7 524.9 577.6 526.5C581.9 534.6 586.3 561.4 585.8 575.7C585.5 581.4 585.7 582.0 588.3 584.0C591.1 586.3 591.1 586.3 586.9 588.7C583.3 590.7 582.5 590.9 581.3 589.7C580.1 588.5 580.1 587.8 581.3 584.9C582.1 583.0 582.6 580.1 582.4 578.5C582.2 576.8 581.3 568.8 580.5 560.5C579.6 552.2 578.3 543.8 577.5 541.7C576.7 539.7 576.0 536.7 576.0 535.2C576.0 533.7 575.1 530.8 574.0 528.7C572.9 526.7 572.0 524.5 572.0 523.9C572.0 522.1 563.7 504.6 559.5 497.5C558.2 495.3 556.4 492.2 555.4 490.5C550.4 481.8 528.3 457.7 521.2 453.3C519.7 452.4 517.8 451.0 517.0 450.3C512.5 446.4 509.1 444.0 508.2 444.0C507.6 444.0 506.7 443.4 506.3 442.6C505.9 441.8 503.9 440.5 502.0 439.6C500.1 438.8 495.4 436.3 491.5 434.0C484.0 429.7 482.3 428.9 477.2 427.1C470.0 424.6 467.3 423.6 463.0 422.0C460.5 421.0 456.4 419.9 453.8 419.6C451.2 419.2 448.8 418.5 448.5 417.9C448.1 417.4 446.1 417.0 444.0 417.0C441.9 417.0 438.9 416.5 437.3 415.9C435.8 415.3 432.2 414.7 429.5 414.5C420.4 413.9 412.2 412.4 410.7 411.2C405.6 406.9 407.0 398.3 413.2 395.7C415.0 394.9 418.2 392.7 420.3 390.8C425.4 386.0 425.2 383.0 419.5 376.5C415.2 371.6 415.1 371.6 411.8 372.8C406.7 374.6 403.9 374.3 403.3 371.9C402.9 370.3 402.2 370.0 400.6 370.5C399.5 370.8 397.1 371.5 395.5 371.9C393.9 372.3 391.1 373.4 389.3 374.3C387.5 375.3 385.1 376.0 383.8 376.0C382.4 376.0 380.3 377.3 378.6 379.2C373.9 384.6 376.8 390.5 387.1 396.0C396.8 401.1 393.6 412.2 382.0 413.4C365.8 415.0 352.9 416.9 351.8 417.8C351.1 418.3 347.9 419.3 344.8 419.9C341.6 420.4 337.7 421.6 336.1 422.5C334.4 423.3 332.4 424.0 331.5 424.0C330.5 424.0 328.2 424.7 326.2 425.6C317.0 429.7 305.6 435.5 302.4 437.6C300.5 438.9 298.3 440.0 297.5 440.0C296.7 440.0 295.3 440.8 294.3 441.8C293.3 442.8 290.5 444.9 288.0 446.5C285.5 448.2 283.1 450.1 282.7 450.7C282.3 451.4 281.3 452.0 280.5 452.0C278.8 452.0 261.1 469.5 254.0 478.2C248.2 485.3 238.7 500.1 234.7 508.5C229.6 519.0 228.0 522.8 228.0 524.3C228.0 525.2 227.1 527.4 226.1 529.2C225.1 531.0 223.9 534.8 223.5 537.5C223.1 540.2 222.4 543.0 221.9 543.6C220.6 545.2 218.8 571.4 219.2 582.0C219.5 591.8 218.3 592.9 212.3 588.6ZM390.0 297.9C383.6 292.5 382.5 287.3 386.6 280.9C389.9 275.6 394.2 273.8 401.5 274.6C408.0 275.4 411.4 277.7 413.5 282.7C415.8 288.1 415.3 290.3 410.9 295.4C406.8 300.0 406.8 300.0 399.7 300.0C393.9 299.9 392.0 299.5 390.0 297.9ZM403.7 295.7C404.9 295.0 406.8 293.2 408.1 291.6C410.2 288.9 410.3 288.6 408.8 284.6C407.7 281.6 406.7 280.4 404.9 280.2C403.6 280.0 401.9 279.4 401.3 278.8C398.3 276.4 388.0 283.0 388.0 287.4C388.0 290.1 393.6 295.7 397.0 296.3C401.1 297.0 401.4 297.0 403.7 295.7ZM387.4 264.1C382.9 259.9 381.5 254.0 382.9 244.9C383.6 240.9 384.7 236.9 385.4 236.0C386.2 235.2 387.1 233.4 387.5 232.0C387.9 230.7 391.5 225.5 395.4 220.5C403.9 209.8 412.0 197.8 412.0 196.1C412.0 195.4 412.9 192.8 414.1 190.3C416.3 185.5 416.1 174.8 413.8 173.4C413.3 173.0 412.3 171.6 411.7 170.1C410.2 166.6 402.8 160.0 400.4 160.0C399.3 159.9 397.4 159.3 396.0 158.5C392.8 156.7 388.0 156.7 385.6 158.5C384.5 159.3 382.2 160.0 380.4 160.0C378.0 160.0 377.0 160.5 376.5 162.0C376.2 163.1 375.0 164.5 373.9 165.0C371.4 166.4 371.4 171.2 374.0 173.5C377.1 176.3 376.8 182.7 373.5 184.2C372.1 184.8 371.0 185.7 371.0 186.1C371.0 187.7 364.0 189.1 358.9 188.4C354.5 187.8 352.8 186.9 348.8 183.2C346.0 180.6 344.0 177.8 344.0 176.6C344.0 175.5 343.3 173.2 342.5 171.6C341.7 170.1 341.0 167.9 341.0 166.8C341.0 163.0 344.2 149.5 345.5 148.0C346.2 147.2 347.1 145.5 347.4 144.3C348.2 141.7 357.0 132.8 363.3 128.2C368.5 124.4 376.2 121.2 383.5 119.8C386.2 119.3 390.8 118.4 393.6 117.8C396.4 117.2 400.2 117.0 402.1 117.3C419.4 119.9 422.2 120.7 431.5 125.7C439.1 129.8 450.5 142.1 454.1 150.0C459.3 161.6 461.5 177.8 458.5 183.0C457.7 184.4 457.1 186.5 457.0 187.8C457.0 191.4 452.1 201.0 447.8 206.0C445.6 208.5 443.5 210.9 443.1 211.5C442.6 212.1 440.2 214.3 437.6 216.5C435.1 218.7 431.9 221.5 430.5 222.7C429.1 224.0 424.9 227.4 421.2 230.4C409.8 239.5 400.2 252.5 400.0 259.0C400.0 261.9 395.1 267.0 392.3 267.0C391.3 267.0 389.1 265.7 387.4 264.1ZM395.0 259.1C395.5 258.0 396.0 256.2 396.0 255.0C396.0 249.7 411.6 231.1 423.0 223.0C431.2 217.1 445.9 202.4 447.6 198.5C448.3 196.7 449.6 194.8 450.4 194.0C451.3 193.3 452.0 191.8 452.0 190.7C452.0 189.6 453.0 185.7 454.2 182.2C456.3 175.8 456.3 175.6 454.7 168.1C453.7 163.9 452.7 159.2 452.3 157.5C452.0 155.8 450.9 153.4 449.9 152.1C448.8 150.8 448.0 149.2 448.0 148.6C448.0 144.7 429.9 128.0 425.8 128.0C424.8 128.0 422.8 127.3 421.5 126.4C420.1 125.5 414.7 124.0 409.4 122.9C400.6 121.2 399.2 121.2 392.8 122.5C389.0 123.3 384.5 124.0 382.8 124.0C381.2 124.0 378.7 124.9 377.3 126.0C375.9 127.1 374.1 128.0 373.4 128.0C371.8 128.0 365.3 132.2 362.5 135.0C361.3 136.1 360.0 137.0 359.4 137.0C358.3 137.0 352.0 144.9 352.0 146.3C352.0 146.8 351.2 148.3 350.1 149.6C349.1 150.9 347.9 154.1 347.6 156.7C347.2 159.4 346.4 163.0 345.9 164.7C345.0 167.5 345.3 168.7 348.1 174.0C351.9 181.3 355.1 184.0 359.5 184.0C363.4 184.0 365.8 181.7 364.1 179.6C362.4 177.6 364.2 170.7 367.4 167.0C368.8 165.2 370.0 163.3 370.0 162.6C370.0 159.2 384.5 153.0 392.4 153.0C397.3 153.0 410.7 159.3 411.5 162.1C411.9 163.1 412.9 164.4 413.9 165.0C415.0 165.5 416.0 167.6 416.4 170.1C416.8 172.4 417.7 175.2 418.5 176.3C420.7 179.4 420.3 186.1 417.6 194.0C414.8 201.8 409.8 209.6 398.2 224.3C395.3 227.9 393.0 231.1 393.0 231.6C393.0 232.0 391.8 234.1 390.4 236.2C388.0 239.6 387.7 241.0 387.6 248.8C387.5 258.2 388.5 261.0 392.1 261.0C393.1 261.0 394.4 260.1 395.0 259.1ZM370.8 180.8C372.7 178.9 372.3 174.8 370.4 175.2C368.1 175.6 366.5 178.4 367.3 180.4C368.1 182.3 369.2 182.4 370.8 180.8Z"/></svg>